# Blender 4.5.1 LTS
# www.blender.org
mtllib arrow.mtl
o wooden_arrow
v 2.264503 0.000000 2.513504
v 2.264503 0.424603 2.486504
v 2.013496 0.424603 2.764103
v 2.038506 0.277302 2.461506
v 1.961494 0.277302 2.461506
v 1.986504 0.424603 2.764103
v 2.264503 0.424603 2.513504
v 2.038506 0.701801 2.538506
v 1.736504 0.000000 2.513504
v 1.986504 0.000000 2.235905
v 1.736504 0.000000 2.486504
v 1.736504 0.424603 2.513504
v 1.961494 0.701801 2.461506
v 1.736504 0.424603 2.486504
v 1.961494 0.277302 2.538506
v 1.961494 0.701801 2.538506
v 2.038506 0.277302 2.538506
v 2.264503 0.000000 2.486504
v 2.013496 0.424603 2.235905
v 2.013496 0.000000 2.235905
v 1.986504 0.424603 2.235905
v 2.038506 0.701801 2.461506
v 1.986504 0.000000 2.764103
v 2.013496 0.000000 2.764103
v 2.086494 2.951500 2.550003
v 2.000496 3.281403 2.500004
v 1.913506 2.951500 2.450004
v 2.000496 2.951500 2.400005
v 2.000496 2.951500 2.600002
v 1.913506 0.244900 2.550003
v 2.086494 0.244900 2.550003
v 2.000496 0.244900 2.600002
v 1.913506 2.951500 2.550003
v 2.000496 0.244900 2.400005
v 1.913506 0.244900 2.450005
v 2.086494 2.951500 2.450004
v 2.086494 0.244900 2.450005
vn -0.7777 -0.6286 -0.0000
vn -0.7778 -0.6285 -0.0000
vn -0.0000 -0.6281 0.7781
vn -0.0000 -0.6287 0.7777
vn 0.9939 -0.0000 0.1102
vn 0.9939 -0.0000 -0.1105
vn -0.7778 0.6286 -0.0000
vn -0.7776 0.6288 -0.0000
vn -0.7775 0.6289 -0.0000
vn -0.0000 -0.0000 1.0000
vn -0.4970 -0.0000 0.8677
vn 0.7778 -0.6285 -0.0000
vn 0.7777 -0.6286 -0.0000
vn 0.7776 -0.6287 -0.0000
vn 0.1100 -0.0000 0.9939
vn 0.1105 -0.0000 0.9939
vn -0.1104 -0.0000 0.9939
vn -0.0000 -0.6289 -0.7775
vn -0.0000 -0.6284 -0.7779
vn -0.0000 -0.6285 -0.7778
vn 1.0000 -0.0000 -0.0000
vn -0.9939 -0.0000 0.1102
vn -0.9939 -0.0000 -0.1102
vn -0.9939 -0.0000 -0.1105
vn 0.7778 0.6285 -0.0000
vn 0.7776 0.6288 -0.0000
vn -0.4971 -0.0000 -0.8677
vn 0.4970 -0.0000 -0.8677
vn 0.4969 -0.0000 -0.8678
vn -0.0000 0.6284 0.7779
vn -0.0000 0.6287 0.7777
vn 0.1099 -0.0000 -0.9939
vn 0.1104 -0.0000 -0.9939
vn -0.1104 -0.0000 -0.9939
vn -0.0000 0.6288 -0.7775
vn -0.0000 0.6284 -0.7779
vn 0.9678 0.2518 -0.0000
vn -0.4826 0.2531 0.8385
vn -0.4825 0.2531 0.8385
vn 0.4825 0.2531 0.8385
vn -0.9677 0.2520 -0.0000
vn -0.9678 0.2519 -0.0000
vn -0.4826 0.2531 -0.8385
vn -0.4826 0.2530 -0.8385
vn 0.4825 0.2531 -0.8385
vn -0.0000 -0.0000 -1.0000
vn -0.0000 1.0000 -0.0000
vn 0.4970 -0.0000 0.8677
vn 0.4971 -0.0000 0.8677
vn -0.0000 -1.0000 -0.0000
vn -1.0000 -0.0000 -0.0000
vt -0.581141 0.472206
vt -0.578011 0.437555
vt -0.574642 0.437555
vt -0.571512 0.472206
vt -0.609337 0.490621
vt -0.609337 0.437555
vt -0.581141 0.525272
vt -0.543316 0.490621
vt -0.543316 0.437555
vt -0.571512 0.525272
vt -0.574642 0.490621
vt -0.578011 0.490621
vt -0.149520 1.577170
vt -0.149520 1.238840
vt -0.138695 1.238840
vt -0.138695 1.577170
vt -0.127870 1.238840
vt -0.127870 1.577170
vt -0.059738 0.750554
vt -0.047238 0.750554
vt -0.053488 0.791794
vt -0.064314 0.750554
vt -0.053488 0.750554
vt -0.053488 0.791794
vt -0.042663 0.750554
vt -0.059738 0.750554
vt -0.144945 1.577170
vt -0.144945 1.238840
vt -0.132445 1.238840
vt -0.132445 1.577170
vt -0.581141 0.476599
vt -0.571512 0.476599
vt -0.571512 0.486228
vt -0.581141 0.486228
vt -0.127870 1.401760
vt -0.149520 1.401760
vt -0.138695 1.395510
vt -0.149520 1.414260
vt -0.127870 1.414260
vt -0.138695 1.420510
s 0
usemtl ArrowFletchings1Mtl
f 4/1/1 18/2/1 1/3/2 17/4/2
f 5/1/3 10/2/3 20/3/4 4/4/4
f 17/1/5 3/5/5 24/6/5
f 3/5/5 17/1/5 8/7/5
f 19/8/6 4/4/6 20/9/6
f 19/8/6 22/10/6 4/4/6
f 12/11/7 16/10/7 13/7/8 14/12/9
f 6/12/10 23/2/10 24/3/10 3/11/10
f 5/4/12 15/1/12 9/2/13 11/3/14
f 7/8/15 17/4/15 1/9/16
f 7/8/15 8/10/15 17/4/15
f 15/1/17 12/5/17 9/6/17
f 12/5/17 15/1/17 16/7/17
f 17/1/18 24/2/18 23/3/19 15/4/20
f 7/12/21 1/2/21 18/3/21 2/11/21
f 6/8/22 15/4/22 23/9/22
f 6/8/22 16/10/22 15/4/22
f 5/1/23 21/5/23 10/6/23
f 21/5/24 5/1/24 13/7/24
f 22/10/25 8/7/25 7/12/26 2/11/26
f 16/7/30 6/12/30 3/11/31 8/10/31
f 4/1/32 2/5/32 18/6/32
f 2/5/32 4/1/32 22/7/33
f 14/8/34 5/4/34 11/9/34
f 14/8/34 13/10/34 5/4/34
f 22/7/35 19/12/35 21/11/36 13/10/36
f 19/12/46 20/2/46 10/3/46 21/11/46
f 22/31/47 13/32/47 16/33/47 8/34/47
f 14/12/51 11/2/51 9/3/51 12/11/51
f 17/33/50 15/34/50 5/31/50 4/32/50
usemtl ArrowTip1Mtl
f 25/19/37 36/20/37 26/21/37
f 33/22/38 29/23/39 26/24/39
f 29/23/40 25/25/40 26/24/40
f 27/26/41 33/20/42 26/24/41
f 28/23/43 27/25/43 26/21/44
f 36/22/45 28/23/45 26/21/45
usemtl ArrowShaft1Mtl
f 33/13/11 30/14/11 32/15/11 29/16/11
f 28/16/27 34/15/27 35/17/27 27/18/27
f 36/13/28 37/14/28 34/15/29 28/16/29
f 25/27/21 31/28/21 37/29/21 36/30/21
f 29/16/48 32/15/48 31/17/49 25/18/49
f 37/35/50 35/36/50 34/37/50
f 27/27/51 35/28/51 30/29/51 33/30/51
f 30/38/50 31/39/50 32/40/50
f 31/39/50 30/38/50 35/36/50 37/35/50
